<svg version="1.1" xmlns="http://www.w3.org/2000/svg" viewBox="-24.217151287610932 -7.0204189407627355 47.61394758499901 23.935036451044283" fill="none" stroke="black" stroke-width="0.6%" vector-effect="non-scaling-stroke">
    <path d="M 20.95097 -2.95513 A 37.90047 12.73511 260.40686 0 1 13.54812 12.40126 A 37.90047 12.73511 260.40686 0 1 9.82496 11.5282" />
    <path d="M 20.95097 -2.95513 C 21.01 -3.55 19.56 -4.43 19.8098 -4.193 C 21.01 -3.55 19.56 -4.43 19.83837 -4.13426 A 42.64317 14.32872 260.40686 0 1 13.2228 4.16222 A 42.64317 14.32872 260.40686 0 1 12.04869 4.21702" />
    <path d="M 2.91786 5.76026 A 73.60727 24.73311 80.40686 0 0 6.4129 9.22153" />
    <path d="M 8.04979 10.46307 A 73.60727 24.73311 80.40686 0 0 9.82496 11.5282" />
    <path d="M 16.63169 7.49441 L 16.82837 8.18334 L 16.17276 9.09017 L -1.20211 12.02677" />
    <path d="M -5.48994 15.61896 A 37.90047 12.73511 80.40686 0 0 1.91291 0.26258 C 1.97 -0.34 0.52 -1.21 0.77174 -0.9753 L 0.07522 -0.85758 L -0.62129 -0.73986 C 0.58 -0.1 -0.87 -0.98 -0.59272 -0.68112 A 42.64317 14.32872 260.40686 0 1 -7.20829 7.61536 A 42.64317 14.32872 260.40686 0 1 -8.61998 7.64781" />
    <path d="M -6.52042 7.44651 A 42.64317 14.32872 260.40686 0 1 -6.98938 7.43473" />
    <path d="M 22.344 -3.19057 L 21.64749 -3.07285 C 21.71 -3.67 20.26 -4.55 20.50631 -4.31073 L 19.8098 -4.193" />
    <path d="M 14.94115 12.16581 A 37.90047 12.73511 80.40686 0 0 22.344 -3.19057 C 22.4 -3.79 20.95 -4.66 21.20283 -4.42845 L 20.50631 -4.31073" />
    <path d="M 13.91067 3.99337 A 42.64317 14.32872 260.40686 0 1 13.44171 3.98158" />
    <path d="M -11.55894 6.5788 L -11.61954 6.58904 L -11.62439 5.90448 L -12.36601 5.15013 L -12.36116 5.83469 L -11.61954 6.58904" />
    <path d="M -3.78726 3.7002 L -12.36601 5.15013" />
    <path d="M -13.17858 4.42478 L -12.47684 5.75544 L -12.38674 5.20804 L -13.08848 3.87738 L -13.17858 4.42478 Z" />
    <path d="M -12.36186 5.736 L -12.47684 5.75544" />
    <path d="M -2.90349 2.15597 L -13.08848 3.87738" />
    <path d="M -2.83621 2.02646 L -13.14718 3.76916 L -13.86672 2.56668 L -13.93425 3.1543 L -13.21471 4.35679 L -13.14718 3.76916" />
    <path d="M -13.16604 4.34856 L -13.21471 4.35679" />
    <path d="M -2.098 0.5776 L -13.86672 2.56668" />
    <path d="M -2.13612 0.47649 L -13.9268 2.46929 L -14.659 1.4036 L -14.70347 2.02724 L -13.97127 3.09293 L -13.9268 2.46929" />
    <path d="M -13.92632 3.08534 L -13.97127 3.09293" />
    <path d="M 8.55815 -2.52043 L -14.659 1.4036" />
    <path d="M 8.49401 -2.50959 L 8.49712 -2.6063 L -14.72003 1.31772 L -15.45963 0.39646 L -15.48072 1.05166 L -14.74112 1.97292 L -14.72003 1.31772" />
    <path d="M -14.69909 1.96582 L -14.74112 1.97292" />
    <path d="M 7.75752 -3.52757 L -15.45963 0.39646" />
    <path d="M 7.69628 -3.51722 L 7.69598 -3.60131 L -15.52117 0.32272 L -16.26288 -0.44753 L -16.26045 0.23454 L -15.51874 1.00478 L -15.52117 0.32272" />
    <path d="M -15.479 0.99807 L -15.51874 1.00478" />
    <path d="M 6.95427 -4.37156 L -16.26288 -0.44753" />
    <path d="M 6.89527 -4.36158 L 6.89265 -4.43263 L -16.3245 -0.5086 L -17.063 -1.12231 L -17.03707 -0.41827 L -16.29856 0.19544 L -16.3245 -0.5086" />
    <path d="M -16.26061 0.18903 L -16.29856 0.19544" />
    <path d="M 6.15415 -5.04634 L -17.063 -1.12231" />
    <path d="M 6.09683 -5.03665 L 6.09289 -5.09431 L 5.36288 -5.54709 L -17.85427 -1.62306 L -17.80501 -0.90208 L -17.075 -0.4493 L -17.12425 -1.17028 L -17.85427 -1.62306" />
    <path d="M 6.09289 -5.09431 L -17.12425 -1.17028" />
    <path d="M -17.03844 -0.45548 L -17.075 -0.4493" />
    <path d="M 5.30677 -5.53761 L 5.30243 -5.58162 L 4.58614 -5.87022 L -18.63101 -1.9462 L -18.55878 -1.21344 L -17.84249 -0.92484 L -17.91471 -1.65759 L -18.63101 -1.9462" />
    <path d="M 5.30243 -5.58162 L -17.91471 -1.65759" />
    <path d="M -17.80697 -0.93084 L -17.84249 -0.92484" />
    <path d="M 4.5308 -5.86087 L 4.52693 -5.89106 L 3.82949 -6.01343 L -19.38766 -2.0894 L -19.29298 -1.35012 L -18.59554 -1.22775 L -18.69021 -1.96703 L -19.38766 -2.0894" />
    <path d="M 4.52693 -5.89106 L -18.69021 -1.96703" />
    <path d="M -18.56077 -1.23363 L -18.59554 -1.22775" />
    <path d="M 3.7745 -6.00413 L 3.77194 -6.02042 L 3.09834 -5.97567 L -20.11881 -2.05164 L -20.00236 -1.31113 L -19.32875 -1.35588 L -19.44521 -2.09639 L -20.11881 -2.05164" />
    <path d="M 3.77194 -6.02042 L -19.44521 -2.09639" />
    <path d="M -19.29446 -1.36167 L -19.32875 -1.35588" />
    <path d="M 3.04332 -5.96637 L 3.04287 -5.96877 L -20.17428 -2.04474 L -20.81921 -1.8332 L -20.68182 -1.09675 L -20.03689 -1.3083 L -20.17428 -2.04474" />
    <path d="M -20.00282 -1.31406 L -20.03689 -1.3083" />
    <path d="M -20.10139 -1.19486 L -20.68182 -1.09675" />
    <path d="M -20.81708 -1.82177 L -20.87221 -1.81246 L -21.48386 -1.43563 L -21.32651 -0.70853 L -20.71487 -1.08536 L -20.87221 -1.81246" />
    <path d="M -20.13444 -1.18346 L -20.71487 -1.08536" />
    <path d="M -20.13565 -1.18907 L -20.13444 -1.18346 L -20.74609 -0.80663 L -21.32651 -0.70853" />
    <path d="M -21.47844 -1.41059 L -21.53401 -1.4012 L -22.10799 -0.86179 L -21.93182 -0.14924 L -21.35783 -0.68865 L -21.53401 -1.4012" />
    <path d="M -20.7774 -0.78675 L -21.35783 -0.68865" />
    <path d="M -20.78087 -0.80075 L -20.7774 -0.78675 L -21.35139 -0.24734 L -21.93182 -0.14924" />
    <path d="M -22.09851 -0.82344 L -22.15493 -0.81391 L -22.68714 -0.11578 L -22.4934 0.57712 L -21.96119 -0.12101 L -22.15493 -0.81391" />
    <path d="M -21.38076 -0.21911 L -21.96119 -0.12101" />
    <path d="M -21.38612 -0.23829 L -21.38076 -0.21911 L -21.91297 0.47902 L -22.4934 0.57712" />
    <path d="M -22.40979 1.36436 L -23.00723 1.46534 L -22.52061 0.61349 L -22.73053 -0.05479 L -23.21715 0.79706 L -23.00723 1.46534" />
    <path d="M -21.93866 0.51513 L -22.52061 0.61349" />
    <path d="M -21.9534 0.53853 L -22.29315 1.13327 A 24.46338 8.22005 80.40686 0 0 -22.47388 1.49788 L -22.47388 2.4039 A 73.60727 24.73311 80.40686 0 0 -10.60613 14.98135" />
    <path d="M -0.38575 10.3706 L 16.63169 7.49441" />
    <path d="M -0.74177 11.15295 L 16.82837 8.18334" />
    <path d="M -21.38292 -0.24201 A 24.46338 8.22005 80.40686 0 0 -21.38612 -0.23829" />
    <path d="M -21.916 0.47953 A 24.46338 8.22005 80.40686 0 0 -21.9534 0.53853" />
    <path d="M 0.51988 0.49802 A 37.90047 12.73511 260.40686 0 1 -6.88297 15.8544 L -5.48994 15.61896" />
    <path d="M -6.88297 15.8544 A 37.90047 12.73511 260.40686 0 1 -10.60613 14.98135" />
    <path d="M 1.2164 0.3803 L 0.51988 0.49802 C 0.58 -0.1 -0.87 -0.98 -0.62129 -0.73986" />
    <path d="M 1.91291 0.26258 L 1.2164 0.3803 C 1.28 -0.22 -0.17 -1.09 0.07522 -0.85758" />
    <path d="M -12.36563 5.20447 L -12.38674 5.20804" />
    <path d="M -4.57003 4.71219 L -11.62439 5.90448" />
    <path d="M -19.68204 -1.33241 L -20.10139 -1.19486" />
    <path d="M 8.64934 -2.3877 L 8.55815 -2.52043" />
    <path d="M 8.49712 -2.6063 L 7.75752 -3.52757" />
    <path d="M 7.69598 -3.60131 L 6.95427 -4.37156" />
    <path d="M 6.89265 -4.43263 L 6.15415 -5.04634" />
    <path d="M -22.67281 -0.06455 L -22.73053 -0.05479" />
    <path d="M 19.27443 -2.50584 L 1.8956 0.43143" />
    <path d="M -1.15666 0.94731 L -1.91058 1.07473 L -1.50551 -0.01397 L -1.73852 -0.63201 L -2.14359 0.4567 L -1.91058 1.07473" />
    <path d="M 19.66327 -3.5918 L 1.44883 -0.5133" />
    <path d="M -0.76782 -0.13865 L -1.50551 -0.01397" />
    <path d="M 21.47862 -4.55603 L -1.73852 -0.63201" />
    <path d="M 21.6194 -4.18265 L 21.47862 -4.55603" />
    <path d="M -9.93186 7.47341 L -10.03389 7.49065 L -10.11336 6.75524 L -10.82418 6.51959 L -10.74471 7.25501 L -10.03389 7.49065" />
    <path d="M -6.11646 6.07971 L -10.11336 6.75524" />
    <path d="M -5.48813 5.61773 L -10.82418 6.51959" />
    <path d="M 15.32441 3.28559 L 1.06345 5.6959" />
    <path d="M -5.10668 6.73874 L -6.11266 6.90876 L -5.50655 6.50659 L -5.66689 5.7814 L -6.27299 6.18357 L -6.11266 6.90876" />
    <path d="M 15.82796 2.90075 L 1.13116 5.38472" />
    <path d="M -4.60313 6.3539 L -5.50655 6.50659" />
    <path d="M -5.57723 5.76624 L -5.66689 5.7814" />
    <path d="M 14.77852 3.62052 L 1.00647 5.94819" />
    <path d="M -5.65257 7.07367 L -6.83234 7.27306 L -6.204 6.97606 L -6.3518 6.24378 L -6.98014 6.54078 L -6.83234 7.27306" />
    <path d="M 15.22193 3.35477 L 1.05144 5.74979" />
    <path d="M -5.20916 6.80792 L -6.204 6.97606" />
    <path d="M -6.263 6.22877 L -6.3518 6.24378" />
    <path d="M -8.29938 7.62951 L -8.44219 7.65365 L -8.54998 6.913 L -9.23376 6.89053 L -9.12597 7.63118 L -8.44219 7.65365" />
    <path d="M -8.46214 6.89815 L -8.54998 6.913" />
    <path d="M -6.87757 6.4923 L -9.23376 6.89053" />
    <path d="M 16.53859 2.21998 L 1.25032 4.80391" />
    <path d="M -3.8925 5.67312 L -4.75333 5.81861 L -4.19695 5.20994 L -4.38089 4.50528 L -4.93728 5.11396 L -4.75333 5.81861" />
    <path d="M 17.04909 1.61906 L 1.35162 4.27215" />
    <path d="M -3.382 5.0722 L -4.19695 5.20994" />
    <path d="M -4.28865 4.48969 L -4.38089 4.50528" />
    <path d="M 14.34971 3.82812 L 0.97388 6.08882" />
    <path d="M -6.08138 7.28126 L -7.67397 7.55043 L -7.79546 6.8104 L -8.4627 6.89478 L -8.3412 7.6348 L -7.67397 7.55043" />
    <path d="M -7.70756 6.79555 L -7.79546 6.8104" />
    <path d="M -7.62785 6.75368 L -8.4627 6.89478" />
    <path d="M -9.1281 7.61655 L -9.2296 7.63371 L -9.32337 6.89459 L -10.02169 6.76534 L -9.92793 7.50446 L -9.2296 7.63371" />
    <path d="M -6.84109 6.47505 L -9.32337 6.89459" />
    <path d="M -6.16822 6.11405 L -10.02169 6.76534" />
    <path d="M 17.13835 1.50339 L 1.37056 4.16837" />
    <path d="M -3.29274 4.95654 L -4.11767 5.09596 L -3.58862 4.38656 L -3.78358 3.69528 L -4.31263 4.40468 L -4.11767 5.09596" />
    <path d="M 17.63289 0.79982 L 1.48142 3.52965" />
    <path d="M -2.7982 4.25297 L -3.58862 4.38656" />
    <path d="M -3.68957 3.67939 L -3.78358 3.69528" />
    <path d="M 17.71672 0.66936 L 1.50112 3.41003" />
    <path d="M -2.71437 4.12251 L -3.51384 4.25763 L -3.01369 3.44957 L -3.21909 2.77369 L -3.71924 3.58174 L -3.51384 4.25763" />
    <path d="M 18.18963 -0.13409 L 1.61638 2.66703" />
    <path d="M -2.24146 3.31906 L -3.01369 3.44957" />
    <path d="M -3.12295 2.75744 L -3.21909 2.77369" />
    <path d="M 18.78814 -1.3385 L 1.76941 1.53791" />
    <path d="M -1.64295 2.11465 L -2.40868 2.24406 L -1.9706 1.24608 L -2.19506 0.60688 L -2.63313 1.60486 L -2.40868 2.24406" />
    <path d="M 19.2074 -2.3333 L 1.87829 0.59557" />
    <path d="M -1.22369 1.11985 L -1.9706 1.24608" />
    <path d="M -2.09344 0.5897 L -2.19506 0.60688" />
    <path d="M 14.41855 3.79794 L 0.97839 6.06952" />
    <path d="M -6.01254 7.25108 L -7.57591 7.51531 L -6.92717 7.32435 L -7.06202 6.58711 L -7.71076 6.77808 L -7.57591 7.51531" />
    <path d="M 14.67993 3.67244 L 0.99803 5.98487" />
    <path d="M -5.75116 7.12558 L -6.92717 7.32435" />
    <path d="M -6.9738 6.5722 L -7.06202 6.58711" />
    <path d="M 18.26795 -0.27899 L 1.63604 2.53204" />
    <path d="M -2.16314 3.17416 L -2.94362 3.30607 L -2.47382 2.40173 L -2.68906 1.74322 L -3.15886 2.64756 L -2.94362 3.30607" />
    <path d="M 18.71542 -1.17956 L 1.75056 1.68775" />
    <path d="M -1.71566 2.27359 L -2.47382 2.40173" />
    <path d="M -2.5904 1.72654 L -2.68906 1.74322" />
    <path d="M 15.9273 2.81564 L 1.14619 5.31386" />
    <path d="M -4.50379 6.26879 L -5.41898 6.42347 L -4.83688 5.91731 L -5.00928 5.20134 L -5.59137 5.7075 L -5.41898 6.42347" />
    <path d="M 16.44406 2.32052 L 1.23295 4.89142" />
    <path d="M -3.98702 5.77367 L -4.83688 5.91731" />
    <path d="M -4.91847 5.18599 L -5.00928 5.20134" />
    <path d="M -10.7513 7.1941 L -10.81987 7.20569 L -10.84846 6.49947 L -11.58627 5.90381 L -11.55768 6.61003 L -10.81987 7.20569" />
    <path d="M -5.45354 5.58765 L -10.84846 6.49947" />
    <path d="M -4.57627 4.71902 L -11.58627 5.90381" />
    <path d="M 21.64749 -3.07285 L 20.95097 -2.95513" />
    <path d="M 13.54812 12.40126 L 14.94115 12.16581" />
</svg>