<svg version="1.1" xmlns="http://www.w3.org/2000/svg" viewBox="-21.771519183659148 -6.517753121021211 44.55259915015999 19.14146707557482" fill="none" stroke="black" stroke-width="0.6%" vector-effect="non-scaling-stroke">
    <path d="M 11.75343 2.82148 L -6.79564 6.90608 L -6.88624 6.31303" />
    <path d="M -7.59325 6.73182 L -6.79564 6.90608" />
    <path d="M 11.75343 2.82148 L 11.73739 2.71649" />
    <path d="M -8.24349 6.61191 L -6.88624 6.31303" />
    <path d="M -8.15289 7.20495 L -8.24349 6.61191" />
    <path d="M -8.15289 7.20495 L -8.60531 7.30458 L -8.71714 6.57253 L -9.51475 6.39826 L -9.40292 7.13031 L -8.60531 7.30458" />
    <path d="M -6.18767 6.01552 L -8.71714 6.57253" />
    <path d="M -7.63214 6.47728 L -7.59325 6.73182" />
    <path d="M -3.64352 5.10539 L -4.25527 5.2401" />
    <path d="M -5.45319 5.50389 L -9.51475 6.39826" />
    <path d="M 10.33249 1.5914 A 42.64317 16.04526 257.58138 0 1 9.3727 1.22805 C 8.86 1 6.71 -1.42 9.27619 1.17325" />
    <path d="M 14.12071 9.89206 A 37.90047 14.26074 77.58138 0 0 21.71995 -4.16702 C 21.79 -4.74 20.12 -5.75 20.40719 -5.49739 L 19.72856 -5.34795 C 21.11 -4.6 19.44 -5.61 19.76402 -5.2879 A 42.64317 16.04526 257.58138 0 1 18.9513 -3.41922 A 42.64317 16.04526 257.58138 0 1 18.82026 -3.16086 L 18.17328 -3.0184" />
    <path d="M 9.65386 1.74084 A 42.64317 16.04526 257.58138 0 1 8.69407 1.37749 C 8.18 1.15 6.03 -1.27 8.59756 1.32268" />
    <path d="M 8.08395 1.43578 L 8.21924 2.05675" />
    <path d="M 8.54004 3.52909 L 9.33844 7.1935" />
    <path d="M 9.62763 8.52075 L 9.88564 9.70495 A 37.90047 14.26074 77.58138 0 0 13.44209 10.0415 A 37.90047 14.26074 77.58138 0 0 21.04132 -4.01758 C 21.11 -4.6 19.44 -5.61 19.72856 -5.34795" />
    <path d="M 18.82026 -3.16086 A 42.64317 16.04526 257.58138 0 1 18.75497 -3.03596 A 42.64317 16.04526 257.58138 0 1 18.24142 -2.13445 L 17.76789 -2.03018" />
    <path d="M 18.24142 -2.13445 A 42.64317 16.04526 257.58138 0 1 16.22399 0.34064 A 42.64317 16.04526 257.58138 0 1 15.63934 0.816" />
    <path d="M -6.21622 5.90588 L -6.02807 6.62854 L -5.34004 6.27141 L -5.52819 5.54876 L -6.21622 5.90588 Z" />
    <path d="M -5.57565 6.52891 L -6.02807 6.62854" />
    <path d="M -4.36029 5.68505 L -4.21841 6.23004 L -3.53037 5.87292 L -3.71852 5.15026 L -3.75437 5.16887 A 42.64317 16.04526 257.58138 0 1 -4.19429 5.45158" />
    <path d="M 14.33067 2.14544 L -4.21841 6.23004" />
    <path d="M 18.27268 -3.26978 L 18.9513 -3.41922" />
    <path d="M 18.07634 -2.88653 L 18.75497 -3.03596" />
    <path d="M 15.54536 0.49007 L 16.22399 0.34064" />
    <path d="M -3.63584 5.13205 L -3.71852 5.15026" />
    <path d="M -4.24468 5.27684 L -3.75437 5.16887" />
    <path d="M -5.4455 5.53055 L -5.52819 5.54876" />
    <path d="M -5.57565 6.52891 L -4.88762 6.17179 L -4.91915 6.05069" />
    <path d="M -4.88762 6.17179 L -5.34004 6.27141" />
    <path d="M 14.33067 2.14544 L 15.0187 1.78832 L 14.98717 1.66722" />
    <path d="M 15.0187 1.78832 L -3.53037 5.87292" />
    <path d="M 18.15703 -2.97729 L 18.27268 -3.26978" />
    <path d="M 18.15703 -2.97729 L -0.39204 1.10731 L -0.2764 0.81481 A 42.64317 16.04526 257.58138 0 1 -0.40744 1.07317 L -1.73304 1.36507" />
    <path d="M -1.63365 1.11369 L -0.2764 0.81481" />
    <path d="M -1.74929 1.40618 L -1.63365 1.11369" />
    <path d="M -1.74929 1.40618 L -2.20171 1.50581 L -1.76952 0.41272 L -2.04466 -0.19732 L -2.47685 0.89577 L -2.20171 1.50581" />
    <path d="M 19.33255 -4.23407 L -1.76952 0.41272" />
    <path d="M -0.40744 1.07317 L -0.39204 1.10731" />
    <path d="M 18.12757 -2.76278 L 18.07634 -2.88653" />
    <path d="M 18.12757 -2.76278 L -0.42151 1.32182 L -0.47273 1.19807 A 42.64317 16.04526 257.58138 0 1 -0.98627 2.09959 L -2.13843 2.3533" />
    <path d="M -1.82998 1.49695 L -0.47273 1.19807" />
    <path d="M -1.77876 1.62069 L -1.82998 1.49695" />
    <path d="M -1.77876 1.62069 L -2.23117 1.72031 L -2.49465 1.08381 L -2.97574 2.06373 L -2.71226 2.70023 L -2.23117 1.72031" />
    <path d="M -2.40131 1.06326 L -2.49465 1.08381" />
    <path d="M -2.25984 2.6006 L -2.71226 2.70023" />
    <path d="M -0.98627 2.09959 L -0.9026 2.30173 L -0.42151 1.32182" />
    <path d="M 17.64648 -1.78287 L -0.9026 2.30173" />
    <path d="M 17.64648 -1.78287 L 18.12757 -2.76278" />
    <path d="M 15.73799 1.15815 L 15.54536 0.49007" />
    <path d="M 15.73799 1.15815 L -2.81108 5.24275 L -3.00371 4.57467 A 42.64317 16.04526 257.58138 0 1 -3.64713 5.09289 L -4.25887 5.2276" />
    <path d="M -4.36096 4.87355 L -3.00371 4.57467" />
    <path d="M -4.16833 5.54163 L -4.36096 4.87355" />
    <path d="M -4.16833 5.54163 L -4.62074 5.64125 L -4.826 4.92938 L -5.47832 5.41674 L -5.27306 6.12862 L -4.62074 5.64125" />
    <path d="M 16.29228 0.27902 L -4.826 4.92938" />
    <path d="M -4.82064 6.029 L -5.27306 6.12862" />
    <path d="M -3.64713 5.09289 L -3.46339 5.73012 L -2.81108 5.24275" />
    <path d="M 15.08568 1.64552 L -3.46339 5.73012" />
    <path d="M 15.08568 1.64552 L 15.73799 1.15815" />
    <path d="M 19.64149 -4.97272 L -2.04466 -0.19732" />
    <path d="M -2.25984 2.6006 L -1.77876 1.62069" />
    <path d="M -4.82064 6.029 L -4.16833 5.54163" />
    <path d="M -19.70856 5.57493 L -19.69185 4.92965 L -2.52709 1.14989" />
    <path d="M -19.70856 5.57493 L -2.88027 1.86925" />
    <path d="M -0.94937 -0.43851 L -1.07469 -0.57679 L -20.75481 3.75687 L -19.69185 4.92965" />
    <path d="M -20.77152 4.40215 L -20.75481 3.75687" />
    <path d="M -20.77152 4.40215 L -19.70856 5.57493" />
    <path d="M -3.71098 10.81001 L -3.93678 10.11677 L 15.74333 5.78311" />
    <path d="M 15.96913 6.47635 L 15.74333 5.78311" />
    <path d="M -3.71098 10.81001 L 15.96913 6.47635 L 15.21647 7.29005 L -4.46364 11.62371 L -4.68944 10.93048 L -3.93678 10.11677" />
    <path d="M -4.46364 11.62371 L -3.71098 10.81001" />
    <path d="M 9.4111 1.14354 L -12.30489 5.92551 L -12.33216 5.238 L -13.18059 4.54519 L -13.15331 5.2327 L -12.30489 5.92551" />
    <path d="M 9.38382 0.45603 L -12.33216 5.238" />
    <path d="M 9.4111 1.14354 L 9.38382 0.45603 L 8.97929 0.12569" />
    <path d="M -2.88685 2.27845 L -13.18059 4.54519" />
    <path d="M 9.3727 1.22805 L 8.69407 1.37749" />
    <path d="M 21.71995 -4.16702 L 21.04132 -4.01758" />
    <path d="M 13.44209 10.0415 L 14.12071 9.89206" />
</svg>