<svg version="1.1" xmlns="http://www.w3.org/2000/svg" viewBox="-23.409618076652016 -6.971016005391241 46.811751051979265 23.797857934611287" fill="none" stroke="black" stroke-width="0.6%" vector-effect="non-scaling-stroke">
    <path d="M -10.31553 7.0815 L -10.40722 7.09644 L -10.43015 6.39464 L -11.14347 5.75829 L -11.13908 5.89277 L -11.18022 5.8579 L -11.15262 6.56376 L -10.44048 7.16736 L -10.44456 7.06314 L -10.40722 7.09644" />
    <path d="M 8.69015 -1.76679 L 8.26048 -2.4192 L -14.14913 1.23304 L -14.19205 1.85557 L -13.48533 2.92867 L -13.4424 2.30614 L -14.14913 1.23304" />
    <path d="M 8.19857 -2.40911 L 8.20158 -2.50569 L 7.4877 -3.4346 L -14.92191 0.21764 L -14.94228 0.87196 L -14.2284 1.80087 L -14.20804 1.14655 L -14.92191 0.21764" />
    <path d="M 7.42859 -3.42497 L 7.4283 -3.50898 L 6.71239 -4.28703 L -15.69723 -0.63479 L -15.69488 0.04664 L -14.97897 0.82469 L -14.98132 0.14327 L -15.69723 -0.63479" />
    <path d="M 6.65544 -4.27775 L 6.65291 -4.34876 L 5.94009 -4.97039 L -16.46952 -1.31815 L -16.44449 -0.61449 L -15.73167 0.00714 L -15.7567 -0.69651 L -16.46952 -1.31815" />
    <path d="M 5.88477 -4.96138 L 5.88097 -5.01902 L 5.17635 -5.47979 L -17.23326 -1.82755 L -17.18572 -1.1067 L -16.4811 -0.64594 L -16.52864 -1.36678 L -17.23326 -1.82755" />
    <path d="M 5.12219 -5.47096 L 5.11801 -5.51498 L 4.42663 -5.81157 L -17.98299 -2.15933 L -17.91327 -1.42646 L -17.2219 -1.12986 L -17.29161 -1.86274 L -17.98299 -2.15933" />
    <path d="M 4.37321 -5.80287 L 4.36948 -5.83307 L 3.69629 -5.96337 L -18.71332 -2.31112 L -18.62194 -1.57147 L -17.94875 -1.44117 L -18.04014 -2.18083 L -18.71332 -2.31112" />
    <path d="M 3.64322 -5.95472 L 3.64075 -5.97102 L 2.99058 -5.93408 L -19.41904 -2.28184 L -19.30664 -1.54071 L -18.65647 -1.57764 L -18.76887 -2.31877 L -19.41904 -2.28184" />
    <path d="M 2.93747 -5.92543 L 2.93703 -5.92783 L -19.47258 -2.27559 L -20.09508 -2.0717 L -19.96247 -1.33438 L -19.33997 -1.53828 L -19.47258 -2.27559" />
    <path d="M 15.20581 12.19857 A 37.90047 12.28017 80.74351 0 0 22.35118 -3.0574 C 22.41 -3.66 21.01 -4.55 21.24969 -4.30725 L 20.54939 -4.19311 L 19.84909 -4.07898 C 21.01 -3.43 19.61 -4.32 19.87667 -4.01997 A 42.64317 13.81686 260.74351 0 1 19.19337 -2.03588 L 19.09614 -1.72632 L 1.72369 1.10498" />
    <path d="M -10.35561 6.38249 L -10.43015 6.39464" />
    <path d="M -10.24919 7.13618 L -10.44048 7.16736" />
    <path d="M -3.51076 4.51433 L -11.14347 5.75829" />
    <path d="M -11.14043 5.85142 L -11.18022 5.8579" />
    <path d="M -11.1575 6.43908 L -11.21539 6.44851 L -11.22007 5.76456 L -11.9359 5.00239 L -11.93121 5.68634 L -11.21539 6.44851" />
    <path d="M -3.5125 4.50841 L -11.22007 5.76456" />
    <path d="M -2.99699 3.54556 L -11.9359 5.00239" />
    <path d="M -11.93189 5.58774 L -12.04287 5.60583 L -11.95591 5.06 L -12.63324 3.72254 L -12.72021 4.26836 L -12.04287 5.60583" />
    <path d="M -11.93553 5.05668 L -11.95591 5.06" />
    <path d="M -2.45854 2.0643 L -12.63324 3.72254" />
    <path d="M -2.40979 1.93833 L -12.6899 3.61375 L -13.38441 2.40413 L -13.44959 2.99041 L -12.75507 4.20002 L -12.6899 3.61375" />
    <path d="M -12.7081 4.19237 L -12.75507 4.20002" />
    <path d="M -1.97062 0.54395 L -13.38441 2.40413" />
    <path d="M -1.93505 0.43071 L -13.4424 2.30614" />
    <path d="M -13.44194 2.9216 L -13.48533 2.92867" />
    <path d="M 8.20158 -2.50569 L -14.20804 1.14655" />
    <path d="M -14.18783 1.79425 L -14.2284 1.80087" />
    <path d="M 7.4283 -3.50898 L -14.98132 0.14327" />
    <path d="M -14.94061 0.81844 L -14.97897 0.82469" />
    <path d="M 6.65291 -4.34876 L -15.7567 -0.69651" />
    <path d="M -15.69504 0.00117 L -15.73167 0.00714" />
    <path d="M 5.88097 -5.01902 L -16.52864 -1.36678" />
    <path d="M -16.44581 -0.65169 L -16.4811 -0.64594" />
    <path d="M 5.11801 -5.51498 L -17.29161 -1.86274" />
    <path d="M -17.18762 -1.13545 L -17.2219 -1.12986" />
    <path d="M 4.36948 -5.83307 L -18.04014 -2.18083" />
    <path d="M -17.91519 -1.44664 L -17.94875 -1.44117" />
    <path d="M 3.64075 -5.97102 L -18.76887 -2.31877" />
    <path d="M -18.62337 -1.58303 L -18.65647 -1.57764" />
    <path d="M -20.09303 -2.06026 L -20.14624 -2.05159 L -20.73661 -1.68219 L -20.58474 -0.95398 L -19.99437 -1.32338 L -20.14624 -2.05159" />
    <path d="M -19.5275 -1.39947 L -19.99437 -1.32338" />
    <path d="M -19.52867 -1.40508 L -19.5275 -1.39947 L -20.11787 -1.03007 L -20.58474 -0.95398" />
    <path d="M -20.73138 -1.65711 L -20.78502 -1.64836 L -21.33904 -1.11611 L -21.16899 -0.40222 L -20.61497 -0.93448 L -20.78502 -1.64836" />
    <path d="M -20.1481 -1.01057 L -20.61497 -0.93448" />
    <path d="M -20.15145 -1.0246 L -20.1481 -1.01057 L -20.70212 -0.47831 L -21.16899 -0.40222" />
    <path d="M -21.32989 -1.07769 L -21.38434 -1.06881 L -21.89804 -0.37751 L -21.71104 0.31695 L -21.19734 -0.37436 L -21.38434 -1.06881" />
    <path d="M -20.73047 -0.45045 L -21.19734 -0.37436" />
    <path d="M -20.73565 -0.46967 L -20.73047 -0.45045 L -21.24417 0.24086 L -21.71104 0.31695" />
    <path d="M -21.26896 0.27664 L -21.7373 0.35297 L -21.93992 -0.31708 L -22.40962 0.52832 L -22.207 1.19837 L -21.7373 0.35297" />
    <path d="M -21.72371 1.1196 L -22.207 1.19837" />
    <path d="M -21.28319 0.29985 L -21.61112 0.89009 A 24.46338 7.92641 80.74351 0 0 -21.78558 1.25225 L -21.78558 2.15739 A 73.60727 23.84957 80.74351 0 0 -10.33061 14.85955" />
    <path d="M -21.88421 -0.32616 L -21.93992 -0.31708" />
    <path d="M 4.11728 6.34047 A 73.60727 23.84957 80.74351 0 0 10.21154 11.51166" />
    <path d="M 20.95058 -2.82914 A 37.90047 12.28017 260.74351 0 1 13.8052 12.42683 L 15.20581 12.19857" />
    <path d="M 13.8052 12.42683 A 37.90047 12.28017 260.74351 0 1 10.21154 11.51166" />
    <path d="M 21.65088 -2.94327 L 20.95058 -2.82914 C 21.01 -3.43 19.61 -4.32 19.84909 -4.07898" />
    <path d="M 21.65088 -2.94327 C 21.71 -3.54 20.31 -4.43 20.54939 -4.19311" />
    <path d="M 19.50972 -2.89137 L 1.74596 0.0037" />
    <path d="M -1.03242 0.45652 L -1.54951 0.54079 L -1.78084 -0.06027 L -2.1442 1.09659 L -1.91287 1.69765 L -1.54951 0.54079" />
    <path d="M -1.44601 1.62156 L -1.91287 1.69765" />
    <path d="M -1.34878 1.312 L -1.44601 1.62156" />
    <path d="M 19.73564 -3.56695 L 1.28588 -0.56007" />
    <path d="M -0.80651 -0.21906 L -1.78084 -0.06027" />
    <path d="M 19.06756 -1.72167 A 42.64317 13.81686 260.74351 0 1 19.0283 -1.6264 L 19.07137 -1.50408 L 18.66689 -0.45891 L 1.57303 2.32699" />
    <path d="M -2.07478 1.27697 L -2.15917 1.29072 L -2.56365 2.33589 L -2.34213 2.96506 L -1.93765 1.9199 L -2.15917 1.29072" />
    <path d="M -1.47078 1.84381 L -1.93765 1.9199" />
    <path d="M -1.51385 1.72149 L -1.47078 1.84381 L -1.87526 2.88898 L -2.34213 2.96506" />
    <path d="M 19.07137 -1.50408 L 1.69835 1.32731" />
    <path d="M 18.57277 -0.44357 L 18.63546 -0.24889 L 18.19173 0.67974 L 1.41409 3.4141" />
    <path d="M -2.50323 2.50751 L -2.58425 2.52071 L -3.02797 3.44934 L -2.81728 4.10372 L -2.37356 3.17508 L -2.58425 2.52071" />
    <path d="M -1.90669 3.099 L -2.37356 3.17508" />
    <path d="M -1.96937 2.90431 L -1.90669 3.099 L -2.35041 4.02763 L -2.81728 4.10372" />
    <path d="M 18.63546 -0.24889 L 1.54429 2.53657" />
    <path d="M 18.10031 0.69464 L 18.15379 0.87656 L 17.67288 1.68436 L 1.25466 4.36015" />
    <path d="M -2.97584 3.61124 L -3.05411 3.624 L -3.53502 4.43179 L -3.33613 5.10834 L -2.85522 4.30054 L -3.05411 3.624" />
    <path d="M -2.38836 4.22445 L -2.85522 4.30054" />
    <path d="M -2.44184 4.04253 L -2.38836 4.22445 L -2.86927 5.03225 L -3.33613 5.10834" />
    <path d="M 18.15379 0.87656 L 1.38279 3.60985" />
    <path d="M 17.58359 1.69891 L 17.6286 1.86708 L 17.11273 2.55029 L 1.10306 5.1595" />
    <path d="M -3.49055 4.58308 L -3.56658 4.59547 L -4.08245 5.27869 L -3.89628 5.97427 L -3.38042 5.29105 L -3.56658 4.59547" />
    <path d="M -2.91355 5.21497 L -3.38042 5.29105" />
    <path d="M -2.95856 5.0468 L -2.91355 5.21497 L -3.42942 5.89818 L -3.89628 5.97427" />
    <path d="M 17.6286 1.86708 L 1.22177 4.54101" />
    <path d="M 17.02508 2.56458 L 17.06231 2.71806 L 16.51387 3.27353 L 0.96779 5.80718" />
    <path d="M -4.04502 5.41854 L -4.11927 5.43064 L -4.66771 5.98611 L -4.49514 6.69751 L -3.9467 6.14204 L -4.11927 5.43064" />
    <path d="M -3.47983 6.06595 L -3.9467 6.14204" />
    <path d="M -3.51707 5.91247 L -3.47983 6.06595 L -4.02827 6.62142 L -4.49514 6.69751" />
    <path d="M 17.06231 2.71806 L 1.0697 5.32448" />
    <path d="M -4.70964 6.12563 L -5.28811 6.55079 L -5.12993 7.2747 L -4.55146 6.84954 L -4.70964 6.12563 Z" />
    <path d="M -4.63675 6.11375 L -4.70964 6.12563" />
    <path d="M 15.87909 3.85073 L 0.85703 6.29897" />
    <path d="M -4.66306 7.19861 L -5.12993 7.2747" />
    <path d="M -5.33494 6.67722 L -5.94076 6.97009 L -5.7977 7.70318 L -5.19188 7.4103 L -5.33494 6.67722 Z" />
    <path d="M -5.26304 6.6655 L -5.33494 6.67722" />
    <path d="M 15.21131 4.2792 L 0.77793 6.6315" />
    <path d="M -5.33083 7.62709 L -5.7977 7.70318" />
    <path d="M -5.99229 7.08286 L -6.62265 7.24209 L -6.49537 7.98095 L -5.86501 7.82171 L -5.99229 7.08286 Z" />
    <path d="M -5.92103 7.07124 L -5.99229 7.08286" />
    <path d="M 14.51364 4.55697 L 0.73589 6.80242" />
    <path d="M -6.02851 7.90486 L -6.49537 7.98095" />
    <path d="M 14.42827 4.57088 L 14.44129 4.65789 L 0.71264 6.89534" />
    <path d="M -6.60767 7.3291 L -6.67863 7.34066 L -7.33062 7.36552 L -7.21971 8.10673 L -6.56772 8.08187 L -6.67863 7.34066" />
    <path d="M -6.10085 8.00578 L -6.56772 8.08187" />
    <path d="M -6.11387 7.91877 L -6.10085 8.00578" />
    <path d="M -6.62131 7.24992 L -7.33062 7.36552" />
    <path d="M -7.31979 7.43788 L -7.39079 7.44945 L -8.06138 7.33981 L -7.96736 8.07994 L -7.29676 8.18957 L -7.39079 7.44945" />
    <path d="M -6.8299 8.11348 L -7.29676 8.18957" />
    <path d="M -6.83263 8.09197 L -6.8299 8.11348" />
    <path d="M -5.93621 6.99346 L -8.06138 7.33981" />
    <path d="M -8.05411 7.39707 L -8.12546 7.4087 L -8.81156 7.16508 L -8.73486 7.90069 L -8.04876 8.14432 L -8.12546 7.4087" />
    <path d="M -7.81079 8.10553 L -8.04876 8.14432" />
    <path d="M -5.27966 6.58946 L -8.81156 7.16508" />
    <path d="M -8.8072 7.20688 L -8.87925 7.21862 L -9.57767 6.84214 L -9.51865 7.56984 L -8.82023 7.94631 L -8.87925 7.21862" />
    <path d="M -8.67366 7.92243 L -8.82023 7.94631" />
    <path d="M -4.65469 6.03981 L -9.57767 6.84214" />
    <path d="M -9.57556 6.86816 L -9.64867 6.88007 L -10.35618 6.37248 L -10.31511 7.08889 L -9.6076 7.59648 L -9.64867 6.88007" />
    <path d="M -9.50134 7.57917 L -9.6076 7.59648" />
    <path d="M -4.06416 5.34703 L -10.35618 6.37248" />
    <path d="M 16.42741 3.28762 L 16.45756 3.42557 L 0.93517 5.95535" />
    <path d="M 16.45756 3.42557 L 15.87909 3.85073" />
    <path d="M 15.7934 3.86469 L 15.81713 3.98632 L 0.8264 6.42946" />
    <path d="M 15.81713 3.98632 L 15.21131 4.2792" />
    <path d="M 15.12598 4.29311 L 15.14401 4.39773 L 0.75048 6.74354" />
    <path d="M 15.14401 4.39773 L 14.51364 4.55697" />
    <path d="M -5.33634 15.54646 A 37.90047 12.28017 80.74351 0 0 1.80903 0.29049 L 1.10873 0.40462 C 1.17 -0.19 -0.23 -1.08 0.00725 -0.84522 L -0.69305 -0.73109 C 0.47 -0.08 -0.93 -0.97 -0.66547 -0.67208 A 42.64317 13.81686 260.74351 0 1 -1.34878 1.312" />
    <path d="M 1.80903 0.29049 C 1.87 -0.31 0.47 -1.2 0.70755 -0.95936 L 0.00725 -0.84522" />
    <path d="M -19.05422 -1.55504 L -19.4956 -1.41047 L -19.96247 -1.33438" />
    <path d="M -20.73256 -0.47335 A 24.46338 7.92641 80.74351 0 0 -20.73565 -0.46967" />
    <path d="M -21.24709 0.24134 A 24.46338 7.92641 80.74351 0 0 -21.28319 0.29985" />
    <path d="M 0.40843 0.51875 A 37.90047 12.28017 260.74351 0 1 -6.73694 15.77472 L -5.33634 15.54646" />
    <path d="M -6.73694 15.77472 A 37.90047 12.28017 260.74351 0 1 -10.33061 14.85955" />
    <path d="M 0.40843 0.51875 C 0.47 -0.08 -0.93 -0.97 -0.69305 -0.73109" />
    <path d="M -1.47458 1.62622 A 42.64317 13.81686 260.74351 0 1 -1.51385 1.72149" />
    <path d="M -4.11473 6.63551 L -4.08459 6.77345 L -4.55146 6.84954" />
    <path d="M -4.08459 6.77345 L -4.66306 7.19861" />
    <path d="M -4.74875 7.21258 L -4.72501 7.33421 L -5.19188 7.4103" />
    <path d="M -4.72501 7.33421 L -5.33083 7.62709" />
    <path d="M -5.41616 7.641 L -5.39814 7.74562 L -5.86501 7.82171" />
    <path d="M -5.39814 7.74562 L -6.02851 7.90486" />
    <path d="M -19.30708 -1.54364 L -19.33997 -1.53828" />
    <path d="M 1.10873 0.40462 L 0.40843 0.51875" />
    <path d="M 22.35118 -3.0574 L 21.65088 -2.94327" />
</svg>